<?xml version="1.0" encoding="utf-8"?>
<!-- Generator: Adobe Illustrator 25.2.3, SVG Export Plug-In . SVG Version: 6.00 Build 0)  -->
<svg version="1.2" baseProfile="tiny" id="icon" xmlns="http://www.w3.org/2000/svg" xmlns:xlink="http://www.w3.org/1999/xlink"
	 x="0px" y="0px" viewBox="0 0 16 16" overflow="visible" xml:space="preserve">
<circle id="circle" fill="#E52421" cx="8" cy="8" r="8"/>
<path id="smile" fill="#FFFFFF" d="M11.18,10.94V5.33c0-0.46-0.37-0.83-0.83-0.83H4.96c-0.46,0-0.83,0.37-0.83,0.83v5.71
	c0,0.46,0.37,0.83,0.83,0.83h4.17l2.08,0.96L11.18,10.94z M7.42,10.69c-2.18-0.02-2.43-1.04-2.28-1.14c0.14-0.1,0.29,0.08,0.29,0.08
	c0.15,0.23,0.31,0.54,1.98,0.6c1.67,0.06,2.24-0.53,2.44-0.63c0.2-0.11,0.35-0.12,0.37,0.05C10.24,9.71,9.6,10.7,7.42,10.69z"/>
</svg>
